<svg xmlns="http://www.w3.org/2000/svg" version="1.1" xmlns:xlink="http://www.w3.org/1999/xlink" width="500" height="500"><svg xmlns="http://www.w3.org/2000/svg" version="1.1" xmlns:xlink="http://www.w3.org/1999/xlink" width="500" height="500"><svg width="500" height="500" viewBox="0 0 500 500" fill="none" xmlns="http://www.w3.org/2000/svg">
<rect width="500" height="500" fill="#563D7C"></rect>
<path d="M166.824 377V122.455H255.815C273.547 122.455 288.172 125.52 299.69 131.652C311.207 137.701 319.783 145.862 325.418 156.137C331.052 166.329 333.869 177.639 333.869 190.068C333.869 201.006 331.922 210.037 328.028 217.163C324.216 224.289 319.162 229.924 312.864 234.067C306.65 238.21 299.897 241.276 292.605 243.264V245.75C300.394 246.247 308.224 248.982 316.096 253.953C323.968 258.925 330.555 266.051 335.858 275.331C341.161 284.611 343.812 295.963 343.812 309.386C343.812 322.147 340.912 333.623 335.112 343.815C329.312 354.006 320.156 362.085 307.644 368.051C295.132 374.017 278.85 377 258.798 377H166.824ZM197.648 349.656H258.798C278.933 349.656 293.227 345.762 301.678 337.973C310.213 330.101 314.48 320.572 314.48 309.386C314.48 300.769 312.284 292.814 307.893 285.523C303.501 278.148 297.245 272.265 289.125 267.874C281.005 263.399 271.393 261.162 260.29 261.162H197.648V349.656ZM197.648 234.315H254.821C264.101 234.315 272.47 232.492 279.928 228.847C287.468 225.201 293.434 220.063 297.825 213.435C302.3 206.806 304.537 199.017 304.537 190.068C304.537 178.882 300.643 169.395 292.854 161.606C285.065 153.734 272.719 149.798 255.815 149.798H197.648V234.315Z" fill="white"></path>
</svg></svg><style>@media (prefers-color-scheme: light) { :root { filter: none; } }
@media (prefers-color-scheme: dark) { :root { filter: none; } }
</style></svg>